<svg width="579" height="649" viewBox="0 0 579 649" fill="none" xmlns="http://www.w3.org/2000/svg">
<g filter="url(#filter0_i_7_36)">
<path d="M519.685 221.386L529.815 294.081L470.837 393.172L377.3 460.611L303.997 456.894L293.866 384.199L352.844 285.109L446.381 217.669L519.685 221.386Z" fill="#CBDCFF"/>
</g>
<path d="M446.681 218.686L518.808 222.343L528.776 293.872L470.084 392.482L377 459.594L304.873 455.937L294.905 384.408L353.597 285.798L446.681 218.686Z" stroke="black" stroke-width="2"/>
<g filter="url(#filter1_i_7_36)">
<path d="M13.7255 395.87L52.8055 459.883L166.235 503.059L287.568 500.108L345.729 452.757L306.649 388.745L193.22 345.568L71.8871 348.519L13.7255 395.87Z" fill="#CBDCFF"/>
</g>
<path d="M72.2533 349.511L15.034 396.094L53.4809 459.07L166.407 502.055L287.201 499.117L344.421 452.533L305.974 389.558L193.048 346.572L72.2533 349.511Z" stroke="black" stroke-width="2"/>
<mask id="mask0_7_36" style="mask-type:alpha" maskUnits="userSpaceOnUse" x="205" y="335" width="229" height="241">
<path d="M427.969 477.901L399.669 562.021L310.292 569.974L225.053 493.909L210.523 391.892L275.316 341.197L372.523 378.524L427.969 477.901Z" fill="#C4C4C4" stroke="black" stroke-width="10"/>
</mask>
<g mask="url(#mask0_7_36)">
<rect width="717.192" height="720.455" transform="matrix(0.200623 -0.979668 0.992881 0.119106 -12.4281 852.866)" fill="url(#paint0_linear_7_36)"/>
<path d="M432.342 477.514L402.658 565.749L308.909 574.091L221.273 495.886L206.219 390.182L274.616 336.666L375.337 375.343L432.342 477.514Z" stroke="black" stroke-width="2"/>
</g>
<g filter="url(#filter2_d_7_36)">
<path d="M197.352 479.853C183.797 430.245 204.307 385.355 216.256 369.112L361.299 389.161C346.421 409.363 322.216 461.073 344.415 506.292C366.614 551.511 326.256 591.91 303.302 606.457L171.925 578.335C186.048 566.178 210.906 529.462 197.352 479.853Z" fill="#F0F0F0"/>
<path d="M197.352 479.853C183.797 430.245 204.307 385.355 216.256 369.112L361.299 389.161C346.421 409.363 322.216 461.073 344.415 506.292C366.614 551.511 326.256 591.91 303.302 606.457L171.925 578.335C186.048 566.178 210.906 529.462 197.352 479.853Z" stroke="black"/>
</g>
<g filter="url(#filter3_d_7_36)">
<path d="M226.12 219.81L317.88 236.238L354.999 308.818L309.525 382.896L215.702 402.689L144.18 353.293L148.816 271.904L226.12 219.81Z" fill="#D96969"/>
<path d="M149.786 272.457L226.343 220.866L317.215 237.135L353.853 308.773L308.898 382.006L215.916 401.622L145.21 352.79L149.786 272.457Z" stroke="black" stroke-width="2"/>
</g>
<rect x="218.531" y="416.125" width="96" height="11.2525" transform="rotate(7.68222 218.531 416.125)" fill="#C4C4C4" stroke="#A8A8A8" stroke-width="2"/>
<rect x="222.852" y="489.098" width="85.7895" height="7.29119" transform="rotate(5.9362 222.852 489.098)" stroke="#A8A8A8" stroke-width="2"/>
<rect x="223.852" y="517.098" width="85.7895" height="7.29119" transform="rotate(5.9362 223.852 517.098)" fill="#C4C4C4" stroke="#A8A8A8" stroke-width="2"/>
<rect x="216.629" y="444.125" width="96" height="11.2525" transform="rotate(7.68222 216.629 444.125)" fill="#C4C4C4" stroke="#A8A8A8" stroke-width="2"/>
<rect x="218.622" y="549.233" width="58.4396" height="7.8488" transform="rotate(7.68222 218.622 549.233)" stroke="#A8A8A8" stroke-width="2"/>
<g filter="url(#filter4_i_7_36)">
<path d="M193.954 293.802L209.185 304.183L217.21 331.529L210.005 348.495L194.774 338.114L186.748 310.767L193.954 293.802Z" fill="#43F5F5"/>
</g>
<path d="M187.278 310.798L194.176 294.558L208.755 304.495L216.68 331.498L209.783 347.739L195.203 337.801L187.278 310.798Z" stroke="black"/>
<g filter="url(#filter5_d_7_36)">
<path d="M149.786 272.457L226.343 220.866L317.215 237.135L353.853 308.773L308.898 382.006L215.916 401.622L145.21 352.79L149.786 272.457Z" stroke="black" stroke-width="2" shape-rendering="crispEdges"/>
</g>
<g filter="url(#filter6_i_7_36)">
<path d="M279.011 271.6L294.079 282.216L301.68 309.684L294.213 326.536L279.144 315.92L271.544 288.452L279.011 271.6Z" fill="#43F5F5"/>
</g>
<path d="M272.073 288.491L279.221 272.36L293.645 282.522L301.15 309.645L294.002 325.776L279.578 315.614L272.073 288.491Z" stroke="black"/>
<mask id="mask1_7_36" style="mask-type:alpha" maskUnits="userSpaceOnUse" x="154" y="108" width="99" height="79">
<ellipse cx="203.306" cy="147.771" rx="49" ry="39" transform="rotate(2.88682 203.306 147.771)" fill="#C4C4C4"/>
</mask>
<g mask="url(#mask1_7_36)">
<mask id="path-22-inside-1_7_36" fill="white">
<path d="M275.1 188.928C270.746 170.472 260.777 154.138 247.386 143.52C233.994 132.902 218.278 128.87 203.693 132.31C189.109 135.75 176.851 146.382 169.617 161.865C162.383 177.348 160.765 196.416 165.119 214.872L220.109 201.9L275.1 188.928Z"/>
</mask>
<path d="M275.1 188.928C270.746 170.472 260.777 154.138 247.386 143.52C233.994 132.902 218.278 128.87 203.693 132.31C189.109 135.75 176.851 146.382 169.617 161.865C162.383 177.348 160.765 196.416 165.119 214.872L220.109 201.9L275.1 188.928Z" stroke="#C9C9C9" stroke-width="30" mask="url(#path-22-inside-1_7_36)"/>
</g>
<mask id="mask2_7_36" style="mask-type:alpha" maskUnits="userSpaceOnUse" x="117" y="51" width="148" height="106">
<ellipse cx="191.108" cy="103.994" rx="74.0416" ry="51.7889" transform="rotate(-11.0524 191.108 103.994)" fill="#C4C4C4"/>
</mask>
<g mask="url(#mask2_7_36)">
<mask id="path-24-inside-2_7_36" fill="white">
<path d="M300.809 148.357C296.455 129.9 282.751 114.448 262.711 105.398C242.67 96.3488 217.936 94.4437 193.948 100.102C169.961 105.761 148.686 118.519 134.803 135.571C120.919 152.623 115.566 172.571 119.92 191.028L210.364 169.692L300.809 148.357Z"/>
</mask>
<path d="M300.809 148.357C296.455 129.9 282.751 114.448 262.711 105.398C242.67 96.3488 217.936 94.4437 193.948 100.102C169.961 105.761 148.686 118.519 134.803 135.571C120.919 152.623 115.566 172.571 119.92 191.028L210.364 169.692L300.809 148.357Z" stroke="#C9C9C9" stroke-width="30" mask="url(#path-24-inside-2_7_36)"/>
</g>
<mask id="mask3_7_36" style="mask-type:alpha" maskUnits="userSpaceOnUse" x="94" y="30" width="180" height="98">
<ellipse cx="183.809" cy="78.9295" rx="90.8243" ry="46.5762" transform="rotate(-11.0524 183.809 78.9295)" fill="#C4C4C4"/>
</mask>
<g mask="url(#mask3_7_36)">
<mask id="path-26-inside-3_7_36" fill="white">
<path d="M326.555 115.866C321.387 93.9609 303.229 76.0669 276.074 66.121C248.92 56.175 214.993 54.9919 181.758 62.8319C148.523 70.6718 118.702 86.8926 98.8548 107.926C79.0079 128.959 70.7611 153.082 75.9285 174.988L201.242 145.427L326.555 115.866Z"/>
</mask>
<path d="M326.555 115.866C321.387 93.9609 303.229 76.0669 276.074 66.121C248.92 56.175 214.993 54.9919 181.758 62.8319C148.523 70.6718 118.702 86.8926 98.8548 107.926C79.0079 128.959 70.7611 153.082 75.9285 174.988L201.242 145.427L326.555 115.866Z" stroke="#C9C9C9" stroke-width="30" mask="url(#path-26-inside-3_7_36)"/>
</g>
<path d="M209.476 162.194L214.346 161.06C219.187 159.933 224.025 162.944 225.152 167.785L245.558 255.441L223.157 260.656L202.751 173C201.624 168.159 204.635 163.321 209.476 162.194Z" fill="#686868" stroke="black" stroke-width="2"/>
<defs>
<filter id="filter0_i_7_36" x="293.866" y="217.669" width="235.948" height="242.942" filterUnits="userSpaceOnUse" color-interpolation-filters="sRGB">
<feFlood flood-opacity="0" result="BackgroundImageFix"/>
<feBlend mode="normal" in="SourceGraphic" in2="BackgroundImageFix" result="shape"/>
<feColorMatrix in="SourceAlpha" type="matrix" values="0 0 0 0 0 0 0 0 0 0 0 0 0 0 0 0 0 0 127 0" result="hardAlpha"/>
<feOffset dx="27" dy="22"/>
<feComposite in2="hardAlpha" operator="arithmetic" k2="-1" k3="1"/>
<feColorMatrix type="matrix" values="0 0 0 0 0 0 0 0 0 0 0 0 0 0 0 0 0 0 0.25 0"/>
<feBlend mode="normal" in2="shape" result="effect1_innerShadow_7_36"/>
</filter>
<filter id="filter1_i_7_36" x="13.7255" y="345.568" width="332.004" height="157.492" filterUnits="userSpaceOnUse" color-interpolation-filters="sRGB">
<feFlood flood-opacity="0" result="BackgroundImageFix"/>
<feBlend mode="normal" in="SourceGraphic" in2="BackgroundImageFix" result="shape"/>
<feColorMatrix in="SourceAlpha" type="matrix" values="0 0 0 0 0 0 0 0 0 0 0 0 0 0 0 0 0 0 127 0" result="hardAlpha"/>
<feOffset dx="-27" dy="30"/>
<feComposite in2="hardAlpha" operator="arithmetic" k2="-1" k3="1"/>
<feColorMatrix type="matrix" values="0 0 0 0 0 0 0 0 0 0 0 0 0 0 0 0 0 0 0.25 0"/>
<feBlend mode="normal" in2="shape" result="effect1_innerShadow_7_36"/>
</filter>
<filter id="filter2_d_7_36" x="170.835" y="368.576" width="204.365" height="253.413" filterUnits="userSpaceOnUse" color-interpolation-filters="sRGB">
<feFlood flood-opacity="0" result="BackgroundImageFix"/>
<feColorMatrix in="SourceAlpha" type="matrix" values="0 0 0 0 0 0 0 0 0 0 0 0 0 0 0 0 0 0 127 0" result="hardAlpha"/>
<feOffset dx="9" dy="11"/>
<feGaussianBlur stdDeviation="2"/>
<feComposite in2="hardAlpha" operator="out"/>
<feColorMatrix type="matrix" values="0 0 0 0 0 0 0 0 0 0 0 0 0 0 0 0 0 0 0.25 0"/>
<feBlend mode="normal" in2="BackgroundImageFix" result="effect1_dropShadow_7_36"/>
<feBlend mode="normal" in="SourceGraphic" in2="effect1_dropShadow_7_36" result="shape"/>
</filter>
<filter id="filter3_d_7_36" x="144.18" y="219.81" width="219.819" height="193.879" filterUnits="userSpaceOnUse" color-interpolation-filters="sRGB">
<feFlood flood-opacity="0" result="BackgroundImageFix"/>
<feColorMatrix in="SourceAlpha" type="matrix" values="0 0 0 0 0 0 0 0 0 0 0 0 0 0 0 0 0 0 127 0" result="hardAlpha"/>
<feOffset dx="5" dy="7"/>
<feGaussianBlur stdDeviation="2"/>
<feComposite in2="hardAlpha" operator="out"/>
<feColorMatrix type="matrix" values="0 0 0 0 0 0 0 0 0 0 0 0 0 0 0 0 0 0 0.25 0"/>
<feBlend mode="normal" in2="BackgroundImageFix" result="effect1_dropShadow_7_36"/>
<feBlend mode="normal" in="SourceGraphic" in2="effect1_dropShadow_7_36" result="shape"/>
</filter>
<filter id="filter4_i_7_36" x="186.748" y="293.802" width="30.462" height="58.6934" filterUnits="userSpaceOnUse" color-interpolation-filters="sRGB">
<feFlood flood-opacity="0" result="BackgroundImageFix"/>
<feBlend mode="normal" in="SourceGraphic" in2="BackgroundImageFix" result="shape"/>
<feColorMatrix in="SourceAlpha" type="matrix" values="0 0 0 0 0 0 0 0 0 0 0 0 0 0 0 0 0 0 127 0" result="hardAlpha"/>
<feOffset dy="4"/>
<feGaussianBlur stdDeviation="2"/>
<feComposite in2="hardAlpha" operator="arithmetic" k2="-1" k3="1"/>
<feColorMatrix type="matrix" values="0 0 0 0 0 0 0 0 0 0 0 0 0 0 0 0 0 0 0.25 0"/>
<feBlend mode="normal" in2="shape" result="effect1_innerShadow_7_36"/>
</filter>
<filter id="filter5_d_7_36" x="144.18" y="219.81" width="219.819" height="193.879" filterUnits="userSpaceOnUse" color-interpolation-filters="sRGB">
<feFlood flood-opacity="0" result="BackgroundImageFix"/>
<feColorMatrix in="SourceAlpha" type="matrix" values="0 0 0 0 0 0 0 0 0 0 0 0 0 0 0 0 0 0 127 0" result="hardAlpha"/>
<feOffset dx="5" dy="7"/>
<feGaussianBlur stdDeviation="2"/>
<feComposite in2="hardAlpha" operator="out"/>
<feColorMatrix type="matrix" values="0 0 0 0 0 0 0 0 0 0 0 0 0 0 0 0 0 0 0.25 0"/>
<feBlend mode="normal" in2="BackgroundImageFix" result="effect1_dropShadow_7_36"/>
<feBlend mode="normal" in="SourceGraphic" in2="effect1_dropShadow_7_36" result="shape"/>
</filter>
<filter id="filter6_i_7_36" x="271.544" y="271.6" width="30.1365" height="58.9356" filterUnits="userSpaceOnUse" color-interpolation-filters="sRGB">
<feFlood flood-opacity="0" result="BackgroundImageFix"/>
<feBlend mode="normal" in="SourceGraphic" in2="BackgroundImageFix" result="shape"/>
<feColorMatrix in="SourceAlpha" type="matrix" values="0 0 0 0 0 0 0 0 0 0 0 0 0 0 0 0 0 0 127 0" result="hardAlpha"/>
<feOffset dy="4"/>
<feGaussianBlur stdDeviation="2"/>
<feComposite in2="hardAlpha" operator="arithmetic" k2="-1" k3="1"/>
<feColorMatrix type="matrix" values="0 0 0 0 0 0 0 0 0 0 0 0 0 0 0 0 0 0 0.25 0"/>
<feBlend mode="normal" in2="shape" result="effect1_innerShadow_7_36"/>
</filter>
<linearGradient id="paint0_linear_7_36" x1="0" y1="720.455" x2="720.448" y2="3.27063" gradientUnits="userSpaceOnUse">
<stop stop-color="#D96969"/>
<stop stop-color="#B6CFFF"/>
<stop offset="0.0353553" stop-color="#B6CFFF"/>
<stop offset="0.0353553" stop-color="#D96969"/>
<stop offset="0.0707107" stop-color="#D96969"/>
<stop offset="0.0707107" stop-color="#B6CFFF"/>
<stop offset="0.106066" stop-color="#B6CFFF"/>
<stop offset="0.106066" stop-color="#D96969"/>
<stop offset="0.141421" stop-color="#D96969"/>
<stop offset="0.141421" stop-color="#B6CFFF"/>
<stop offset="0.176777" stop-color="#B6CFFF"/>
<stop offset="0.176777" stop-color="#D96969"/>
<stop offset="0.212132" stop-color="#D96969"/>
<stop offset="0.212132" stop-color="#B6CFFF"/>
<stop offset="0.247487" stop-color="#B6CFFF"/>
<stop offset="0.247487" stop-color="#D96969"/>
<stop offset="0.282843" stop-color="#D96969"/>
<stop offset="0.282843" stop-color="#B6CFFF"/>
<stop offset="0.318198" stop-color="#B6CFFF"/>
<stop offset="0.318198" stop-color="#D96969"/>
<stop offset="0.353553" stop-color="#D96969"/>
<stop offset="0.353553" stop-color="#B6CFFF"/>
<stop offset="0.388909" stop-color="#B6CFFF"/>
<stop offset="0.388909" stop-color="#D96969"/>
<stop offset="0.424264" stop-color="#D96969"/>
<stop offset="0.424264" stop-color="#B6CFFF"/>
<stop offset="0.459619" stop-color="#B6CFFF"/>
<stop offset="0.459619" stop-color="#D96969"/>
<stop offset="0.494975" stop-color="#D96969"/>
<stop offset="0.494975" stop-color="#B6CFFF"/>
<stop offset="0.53033" stop-color="#B6CFFF"/>
<stop offset="0.53033" stop-color="#D96969"/>
<stop offset="0.565685" stop-color="#D96969"/>
<stop offset="0.565685" stop-color="#B6CFFF"/>
<stop offset="0.601041" stop-color="#B6CFFF"/>
<stop offset="0.601041" stop-color="#D96969"/>
<stop offset="0.636396" stop-color="#D96969"/>
<stop offset="0.636396" stop-color="#B6CFFF"/>
<stop offset="0.671751" stop-color="#B6CFFF"/>
<stop offset="0.671751" stop-color="#D96969"/>
<stop offset="0.707107" stop-color="#D96969"/>
<stop offset="0.707107" stop-color="#B6CFFF"/>
<stop offset="0.742462" stop-color="#B6CFFF"/>
<stop offset="0.742462" stop-color="#D96969"/>
<stop offset="0.777817" stop-color="#D96969"/>
<stop offset="0.777817" stop-color="#B6CFFF"/>
<stop offset="0.813173" stop-color="#B6CFFF"/>
<stop offset="0.813173" stop-color="#D96969"/>
<stop offset="0.848528" stop-color="#D96969"/>
<stop offset="0.848528" stop-color="#B6CFFF"/>
<stop offset="0.883883" stop-color="#B6CFFF"/>
<stop offset="0.883883" stop-color="#D96969"/>
<stop offset="0.919239" stop-color="#D96969"/>
<stop offset="0.919239" stop-color="#B6CFFF"/>
<stop offset="0.954594" stop-color="#B6CFFF"/>
<stop offset="0.954594" stop-color="#D96969"/>
<stop offset="0.989949" stop-color="#D96969"/>
<stop offset="0.989949" stop-color="#B6CFFF"/>
</linearGradient>
</defs>
</svg>
